<?xml version="1.0" encoding="iso-8859-1"?>
<!-- Uploaded to: SVG Repo, www.svgrepo.com, Generator: SVG Repo Mixer Tools -->
<svg fill="#000000" height="800px" width="800px" version="1.1" id="Layer_1" xmlns="http://www.w3.org/2000/svg" xmlns:xlink="http://www.w3.org/1999/xlink" 
	 viewBox="0 0 512.003 512.003" xml:space="preserve">
<g transform="translate(0 -1)">
	<g>
		<g>
			<path d="M392.535,1H119.468c-4.713,0-8.533,3.821-8.533,8.533v409.6c0,4.713,3.82,8.533,8.533,8.533h17.017
				c0.017,0,0.033,0.003,0.05,0.003c39.565,0,72.078,29.842,76.318,68.267h-25.118c-4.713,0-8.533,3.82-8.533,8.533
				s3.82,8.533,8.533,8.533h136.533c4.713,0,8.533-3.821,8.533-8.533s-3.82-8.533-8.533-8.533H299.15
				c4.24-38.425,36.753-68.267,76.318-68.267c0.017,0,0.033-0.002,0.05-0.003h17.017c4.713,0,8.533-3.821,8.533-8.533V9.533
				C401.068,4.821,397.247,1,392.535,1z M281.991,495.936h-51.979c-2.539-28.223-17.542-52.826-39.476-68.269h130.93
				C299.533,443.11,284.53,467.713,281.991,495.936z M384.001,410.6h-256V18.067h256V410.6z"/>
			<path d="M162.135,385h187.733c4.713,0,8.533-3.82,8.533-8.533V52.2c0-4.713-3.821-8.533-8.533-8.533H162.135
				c-4.713,0-8.533,3.82-8.533,8.533v324.267C153.601,381.18,157.422,385,162.135,385z M170.668,60.733h170.667v307.2H170.668
				V60.733z"/>
			<path d="M221.868,111.936h68.267c4.713,0,8.533-3.82,8.533-8.533s-3.821-8.533-8.533-8.533h-68.267
				c-4.713,0-8.533,3.82-8.533,8.533S217.155,111.936,221.868,111.936z"/>
			<path d="M290.135,197.269c4.713,0,8.533-3.821,8.533-8.533s-3.821-8.533-8.533-8.533h-68.267c-4.713,0-8.533,3.82-8.533,8.533
				s3.82,8.533,8.533,8.533H290.135z"/>
			<path d="M307.201,137.536h-102.4c-4.713,0-8.533,3.82-8.533,8.533s3.82,8.533,8.533,8.533h102.4c4.713,0,8.533-3.82,8.533-8.533
				S311.914,137.536,307.201,137.536z"/>
			<path d="M290.135,282.603c4.713,0,8.533-3.82,8.533-8.533s-3.821-8.533-8.533-8.533h-68.267c-4.713,0-8.533,3.82-8.533,8.533
				s3.82,8.533,8.533,8.533H290.135z"/>
			<path d="M307.201,222.869h-102.4c-4.713,0-8.533,3.82-8.533,8.533s3.82,8.533,8.533,8.533h102.4c4.713,0,8.533-3.82,8.533-8.533
				S311.914,222.869,307.201,222.869z"/>
			<path d="M307.201,308.203h-102.4c-4.713,0-8.533,3.82-8.533,8.533s3.82,8.533,8.533,8.533h102.4c4.713,0,8.533-3.82,8.533-8.533
				S311.914,308.203,307.201,308.203z"/>
		</g>
	</g>
</g>
</svg>